<svg width="28" height="24" viewBox="0 0 28 24" fill="none" xmlns="http://www.w3.org/2000/svg">
<path d="M25 0.116211H3C1.3457 0.116211 0 1.46191 0 3.11621V19.1162C0 20.7705 1.3457 22.1162 3 22.1162H7V22.8838C7 23.436 7.44775 23.8838 8 23.8838H20C20.5522 23.8838 21 23.436 21 22.8838V22.1162H25C26.6543 22.1162 28 20.7705 28 19.1162V3.11621C28 1.46191 26.6543 0.116211 25 0.116211ZM26 19.1162C26 19.6675 25.5513 20.1162 25 20.1162H21V19.3481C21 18.7959 20.5522 18.3481 20 18.3481H8C7.44775 18.3481 7 18.7959 7 19.3481V20.1162H3C2.44873 20.1162 2 19.6675 2 19.1162V3.11621C2 2.56494 2.44873 2.11621 3 2.11621H25C25.5513 2.11621 26 2.56494 26 3.11621V19.1162ZM9 21.8838V20.3481H19V21.8838H9Z" fill="white"/>
</svg>
